<?xml version="1.0" standalone="no"?><!DOCTYPE svg PUBLIC "-//W3C//DTD SVG 1.1//EN" "http://www.w3.org/Graphics/SVG/1.1/DTD/svg11.dtd"><svg t="1784706977257" class="icon" viewBox="0 0 1024 1024" version="1.1" xmlns="http://www.w3.org/2000/svg" p-id="7257" xmlns:xlink="http://www.w3.org/1999/xlink" width="200" height="200"><path d="M21.268082 511.747568c0 270.927883 219.615436 490.543319 490.497423 490.54332 270.881986 0 490.497423-219.615436 490.497423-490.497423C1002.262928 240.865582 782.647492 21.341939 511.765505 21.341939 240.883519 21.341939 21.359876 240.957375 21.359876 511.793465H21.268082z" fill="#999999" p-id="7258"></path><path d="M983.215821 710.801309q40.297252-95.051947 40.297253-199.007844t-40.297253-199.05374q-38.874457-91.793286-109.738873-162.657703-70.910313-70.910313-162.703599-109.78477Q615.721401 0 511.765505 0 407.855506 0 312.757661 40.297252q-91.793286 38.874457-162.657702 109.78477Q79.189646 220.946439 40.315189 312.739725 0.017937 407.837569 0.017937 511.793465q0 103.91 40.297252 199.007844 38.874457 91.793286 109.78477 162.657702 70.864417 70.864417 162.657702 109.78477 95.097844 40.251356 199.007844 40.251356 103.955896 0 199.007844-40.297253 91.793286-38.874457 162.703599-109.692976 70.864417-70.910313 109.738873-162.703599zM329.326349 79.401192Q413.317206 43.785397 504.881009 42.500291h6.884496q95.281431 0 182.485052 36.946798 84.174443 35.707588 149.16409 100.697234t100.651338 149.16409q36.946798 87.203622 36.946797 182.485052t-36.946797 182.439156q-35.661692 84.22034-100.651338 149.164089-64.989646 65.035543-149.16409 100.697235-87.203622 36.946798-182.485052 36.946797t-182.439156-36.946797q-84.22034-35.661692-149.164089-100.697235-65.035543-65.035543-100.697235-149.164089-36.946798-87.203622-36.946797-182.530949 0-95.281431 36.946797-182.439156 35.661692-84.22034 100.651338-149.164089Q245.10601 115.016987 329.280453 79.401192z" fill="#2E2E2E" p-id="7259"></path><path d="M884.951109 386.449733q0 6.196047-0.596657 12.346197t-1.835866 12.208507q-1.193313 6.058357-2.983281 11.979024-1.789969 5.966564-4.130698 11.657747-2.386625 5.691184-5.324011 11.152885-2.891489 5.507597-6.333736 10.602124-3.442248 5.140424-7.343463 9.959572-3.947111 4.773251-8.307293 9.179328-4.406078 4.360181-9.179328 8.261396-4.773251 3.947111-9.913675 7.343463-5.140424 3.442248-10.602125 6.379633-5.461701 2.891489-11.152884 5.278114-5.73708 2.386625-11.657747 4.130698-5.920667 1.835866-11.979024 3.029178-6.058357 1.239209-12.254404 1.835866-6.15015 0.596656-12.346197 0.596656-6.15015 0-12.346197-0.596656-6.15015-0.596656-12.208507-1.835866-6.058357-1.193313-11.979023-2.983281-5.966564-1.835866-11.657748-4.130698-5.691184-2.432522-11.152884-5.324011-5.461701-2.937385-10.602124-6.379633-5.140424-3.396352-9.913675-7.343463-4.819148-3.901215-9.179329-8.261396-4.360181-4.406078-8.261396-9.179328-3.947111-4.819148-7.389359-9.959572-3.442248-5.140424-6.379633-10.556228-2.891489-5.507597-5.278114-11.198781-2.340729-5.73708-4.130698-11.657747-1.835866-5.920667-3.029179-11.933127-1.193313-6.104254-1.835865-12.254404-0.596656-6.15015-0.596657-12.392093 0-6.15015 0.642553-12.300301 0.596656-6.15015 1.835866-12.254403 1.147416-6.058357 2.983282-11.933127 1.789969-5.966564 4.130698-11.657748 2.386625-5.73708 5.278114-11.198781 2.937385-5.461701 6.379633-10.556227 3.442248-5.186321 7.343463-9.959572 3.947111-4.773251 8.307292-9.179329 4.360181-4.360181 9.179329-8.261395 4.773251-3.947111 9.913675-7.38936 5.140424-3.442248 10.556227-6.333737 5.507597-2.937385 11.198781-5.32401 5.73708-2.340729 11.657748-4.130698 5.920667-1.835866 11.979023-3.029178 6.058357-1.193313 12.208507-1.835866 6.196047-0.55076 12.392094-0.55076 6.15015 0 12.3003 0.596657 6.196047 0.596656 12.254404 1.835865 6.058357 1.193313 11.979024 2.983282 5.920667 1.789969 11.657747 4.130698 5.691184 2.386625 11.152884 5.32401 5.461701 2.891489 10.602125 6.333737 5.140424 3.442248 9.913675 7.343463 4.773251 3.947111 9.179328 8.307292 4.360181 4.406078 8.261396 9.179329 3.947111 4.773251 7.38936 9.913675 3.442248 5.140424 6.333736 10.602124 2.937385 5.461701 5.324011 11.198781 2.340729 5.691184 4.130698 11.611851 1.835866 5.966564 3.029178 11.979024 1.193313 6.104254 1.835866 12.254403 0.55076 6.15015 0.55076 12.346197zM213.529119 391.177088a71.461073 71.461073 0 1 0 142.922146 0.045896 71.461073 71.461073 0 0 0-142.922146 0zM437.87191 532.860024a42.775671 42.775671 0 1 0 85.597239 0 42.775671 42.775671 0 0 0-85.597239 0z" fill="#666666" p-id="7260"></path><path d="M521.174317 579.39922q17.440724-15.145892 20.653489-38.00242 3.166868-22.902425-9.454708-42.224912-12.621577-19.322487-34.881449-25.656223-24.003944-6.746807-46.630989 5.87477-22.672942 12.621577-29.511541 36.579625-8.399086 29.557438 10.097261 54.066245 18.542244 24.508807 49.247098 24.508807 23.086011 0 40.480839-15.145892z m-17.440724-40.021873q3.212765-11.474161-3.947112-20.928869-7.205773-9.500605-19.093003-9.546501-8.949845 0-15.696652 5.920667-6.792703 5.87477-7.986016 14.732822-1.239209 8.858052 3.671731 16.385101 4.865044 7.481153 13.447717 9.913675 9.500605 2.570212 18.129174-2.294832 8.628569-4.773251 11.474161-14.227959z" fill="#2E2E2E" p-id="7261"></path><path d="M790.220438 655.541751a26.803639 26.803639 0 1 0 53.607279 0 26.803639 26.803639 0 0 0-53.607279 0z" fill="#666666" p-id="7262"></path><path d="M817.069974 694.324414a38.782663 38.782663 0 0 1-37.313971-49.384788 39.471113 39.471113 0 0 1 47.870199-26.665949 38.782663 38.782663 0 0 1-10.556228 76.050737z m0-53.561382a14.824616 14.824616 0 1 0 0.045896 0h-0.045896z" fill="#2E2E2E" p-id="7263"></path><path d="M559.130841 806.082739q0 3.212765-0.321277 6.517324-0.321277 3.212765-0.917933 6.42553-0.68845 3.212765-1.606382 6.333736-0.96383 3.120972-2.203039 6.150151-1.239209 2.983282-2.799695 5.87477t-3.350455 5.59939q-1.835866 2.707902-3.901215 5.232218-2.065349 2.524315-4.360181 4.819147-2.294832 2.294832-4.819148 4.406078-2.524315 2.065349-5.232217 3.855318-2.753799 1.835866-5.59939 3.350455-2.891489 1.560486-5.874771 2.753798-3.029178 1.285106-6.15015 2.248936-3.120972 0.917933-6.333736 1.560486-3.212765 0.642553-6.42553 0.963829-3.258662 0.321277-6.517324 0.321277t-6.517323-0.321277q-3.212765-0.321277-6.42553-0.917933-3.212765-0.68845-6.333737-1.606382-3.120972-0.917933-6.15015-2.203039-3.029178-1.239209-5.87477-2.753799-2.891489-1.560486-5.599391-3.396351-2.753799-1.835866-5.232217-3.855318-2.524315-2.111246-4.819147-4.406078-2.294832-2.294832-4.406078-4.819147-2.065349-2.524315-3.855318-5.232218-1.835866-2.753799-3.350455-5.59939-1.560486-2.891489-2.799695-5.87477-1.239209-3.029178-2.203039-6.150151-0.917933-3.120972-1.606383-6.333736-0.596656-3.212765-0.917933-6.42553-0.321277-3.258662-0.321276-6.517324t0.321276-6.517323q0.321277-3.212765 0.917933-6.42553 0.642553-3.212765 1.606383-6.333737 0.917933-3.120972 2.203039-6.15015 1.239209-3.029178 2.753798-5.87477 1.560486-2.891489 3.396352-5.59939 1.835866-2.753799 3.855318-5.232218 2.065349-2.524315 4.406078-4.865044 2.294832-2.294832 4.819147-4.360181 2.524315-2.065349 5.232217-3.901215 2.707902-1.835866 5.599391-3.350455 2.845592-1.514589 5.87477-2.753798 3.029178-1.285106 6.15015-2.203039t6.28784-1.606382q3.212765-0.642553 6.42553-0.917933 3.304558-0.367173 6.56322-0.367173 3.212765 0 6.517324 0.321276 3.212765 0.321277 6.42553 0.96383 3.212765 0.642553 6.333736 1.606382 3.120972 0.917933 6.15015 2.203039 2.983282 1.239209 5.874771 2.753798 2.891489 1.560486 5.59939 3.350455 2.707902 1.835866 5.232217 3.901215 2.524315 2.065349 4.819148 4.360181 2.294832 2.294832 4.360181 4.865044 2.065349 2.524315 3.901215 5.232218 1.835866 2.707902 3.350455 5.59939 1.560486 2.845592 2.753798 5.87477 1.285106 3.029178 2.248936 6.15015 0.917933 3.120972 1.560486 6.287841 0.642553 3.212765 0.917932 6.42553 0.367173 3.304558 0.367174 6.563219z" fill="#666666" p-id="7264"></path><path d="M544.076742 874.101564q22.764735-17.211241 30.567164-44.70333 10.326745-36.212451-9.500605-68.248308-19.82735-31.98996-56.911837-38.920353-36.992694-6.884496-67.009099 15.834342-30.062301 22.718838-33.504549 60.216395-3.442248 37.497557 21.938595 65.310923 25.42674 27.813366 63.061987 27.767469 28.593609 0 51.358344-17.257138z m-51.40424-115.613643q6.70091 0 13.080543 1.835865 18.955314 5.415804 28.547712 22.627045 9.592398 17.211241 4.176594 36.120658-5.369907 18.955314-22.581148 28.547712-17.211241 9.546502-36.166555 4.176595-18.955314-5.324011-28.501815-22.581149-13.26413-23.774461 0.504863-47.273542 13.768993-23.407288 40.985702-23.407288z" fill="#2E2E2E" p-id="7265"></path><path d="M658.910142 67.009099a468.834207 468.834207 0 0 0-456.671597 176.105419C44.721267 448.823271 83.733413 743.158442 289.350374 900.67572a468.742414 468.742414 0 0 0 133.237954 71.36928 466.768858 466.768858 0 0 1-200.84371-89.039487C16.035865 725.580028-22.930385 431.244857 134.586894 225.490207 260.389592 61.226122 473.487705 3.396352 658.910142 67.009099z" fill="#666666" p-id="7266"></path><path d="M752.72288 532.401058a137.689929 137.689929 0 1 0 0-275.379858 137.689929 137.689929 0 0 0 0 275.379858z m0-238.662543a100.972614 100.972614 0 1 1 0 201.945228 100.972614 100.972614 0 0 1 0-201.945228zM286.871955 463.556093a75.729461 75.729461 0 1 0 0-151.458921 75.729461 75.729461 0 0 0 0 151.458921z m0-114.741607a39.012146 39.012146 0 1 1 0 78.024293 39.012146 39.012146 0 0 1 0-78.024293z" fill="#2E2E2E" p-id="7267"></path></svg>