<svg width="287.338" height="91.387" viewBox="0 0 287.338 91.387" xmlns="http://www.w3.org/2000/svg"><g id="svgGroup" stroke-linecap="round" fill-rule="evenodd" font-size="9pt" stroke="#000000" stroke-width="0.25mm" fill="#000000" style="stroke:#000000;stroke-width:0.25mm;fill:#000000"><path d="M 141.7 3.51 L 143.6 5.61 L 143.6 9.51 Q 143.6 13.61 143.2 14.56 Q 142.8 15.51 142.6 18.31 L 142.3 21.11 L 143.8 20.71 Q 145.5 20.51 149.55 19.71 Q 153.6 18.91 155 18.81 Q 159.2 18.41 159.8 17.71 Q 160.5 16.41 164.7 18.41 Q 168.9 20.41 168.9 21.91 Q 168.9 22.51 169.4 22.91 Q 170 23.41 169.85 24.86 Q 169.7 26.31 168.9 27.11 Q 168 28.21 167.05 28.36 Q 166.1 28.51 163.5 28.01 Q 160.3 27.41 153.55 27.76 Q 146.8 28.11 143 29.01 Q 141 29.41 140.45 29.76 Q 139.9 30.11 139.6 30.71 Q 139.4 31.71 139.1 32.51 Q 136.9 37.51 136.5 39.51 Q 136.1 41.51 137.2 42.31 Q 137.8 42.71 138 42.71 Q 138.2 42.71 138.3 42.21 Q 139.1 39.51 142.7 39.01 Q 143.4 38.91 147.9 38.41 Q 152.4 37.91 152.6 37.56 Q 152.8 37.21 155.5 37.11 Q 157.5 37.11 158.05 37.31 Q 158.6 37.51 159.7 38.61 Q 161.1 40.01 161.1 40.46 Q 161.1 40.91 161.7 41.31 Q 163.4 42.61 160.2 51.31 L 159.1 54.51 Q 158.4 56.41 157.95 56.91 Q 157.5 57.41 157.5 58.01 Q 157.5 58.61 156.25 61.16 Q 155 63.71 155 64.31 Q 155 65.01 158.5 67.66 Q 162 70.31 164.6 71.81 Q 167.1 73.11 171.4 75.11 Q 175.7 77.11 176.7 77.41 Q 177.6 77.61 179.85 78.56 Q 182.1 79.51 184.7 80.41 Q 189.5 81.91 190.55 82.41 Q 191.6 82.91 191.6 83.81 Q 191.7 84.51 191.35 84.86 Q 191 85.21 189.5 86.01 Q 187.2 87.01 186.3 87.01 Q 185.4 87.01 183.45 88.21 Q 181.5 89.41 180.85 89.41 Q 180.2 89.41 179.7 90.41 Q 179 91.21 178.35 91.36 Q 177.7 91.51 175.7 90.81 Q 168.8 88.61 166.6 87.21 Q 164.6 86.01 162.6 84.91 Q 161 84.11 157.45 81.31 Q 153.9 78.51 151.2 75.81 Q 148.7 73.51 147.95 73.51 Q 147.2 73.51 144.95 75.61 Q 142.7 77.71 140.25 79.11 Q 137.8 80.51 137.1 81.01 Q 134.9 82.81 131.6 84.06 Q 128.3 85.31 125.8 85.31 Q 122.5 85.31 122.5 84.61 Q 122.4 83.81 126.7 81.51 Q 130.1 79.61 132.25 77.71 Q 134.4 75.81 136.6 72.91 L 140.1 68.11 Q 141.6 66.21 141.85 65.21 Q 142.1 64.21 141.4 62.91 Q 140.8 61.91 139.7 59.81 L 137.8 56.21 Q 135.6 52.31 134.8 50.11 Q 133.9 47.91 133.3 47.81 Q 133 47.81 133 48.31 Q 133 49.01 132.15 50.66 Q 131.3 52.31 130.9 52.31 Q 130.6 52.31 130.55 53.01 Q 130.5 53.71 129.5 55.36 Q 128.5 57.01 127.65 58.86 Q 126.8 60.71 123.8 64.36 Q 120.8 68.01 120.8 68.51 Q 120.8 69.21 112 77.41 L 104.8 84.21 Q 101.9 87.01 101.6 87.01 Q 100.6 87.01 101.7 84.61 Q 102 84.01 102.5 83.41 Q 103.7 82.01 103.9 81.26 Q 104.1 80.51 104.55 80.51 Q 105 80.51 105.2 79.76 Q 105.4 79.01 105.85 78.51 Q 106.3 78.01 106.9 77.16 Q 107.5 76.31 109.4 73.81 Q 116 65.01 122.1 50.11 Q 123.7 46.41 124.1 46.01 Q 124.5 45.61 124.5 44.96 Q 124.5 44.31 125.6 41.91 Q 127 38.41 128.3 33.91 Q 128.4 33.31 128.5 32.91 Q 128.6 32.51 128.6 32.31 Q 128.6 32.11 128.5 32.06 Q 128.4 32.01 128.3 32.01 Q 127.6 32.01 125.6 32.91 Q 123.6 33.81 122.9 34.51 Q 122.3 35.01 122 35.06 Q 121.7 35.11 120.9 34.71 Q 119.3 33.91 117.4 31.66 Q 115.5 29.41 115.8 28.66 Q 116.1 27.91 117.45 26.86 Q 118.8 25.81 120.4 25.21 Q 125.9 23.31 130 22.61 L 131.5 22.41 L 132.5 17.71 Q 133.4 13.01 133.8 10.31 Q 134.2 7.51 135.25 4.01 Q 136.3 0.51 136.9 0.11 Q 137.3 -0.29 138.8 0.76 Q 140.3 1.81 141.7 3.51 Z M 239.2 10.81 Q 238.5 11.61 233.1 12.91 Q 223.2 14.81 219.6 16.21 Q 217.2 17.11 214.05 19.31 Q 210.9 21.51 210.9 22.21 Q 210.9 25.21 213.4 26.81 Q 215.3 27.81 215.9 27.81 Q 216.5 27.81 218.3 25.66 Q 220.1 23.51 220.55 23.51 Q 221 23.51 221.9 22.81 Q 223.4 21.31 229.65 20.06 Q 235.9 18.81 236.2 20.01 Q 236.5 20.61 236 25.21 Q 235.5 29.81 235.5 37.31 Q 235.6 50.21 239.1 57.51 Q 240.8 60.91 241 61.61 Q 241.4 62.71 243.7 65.86 Q 246 69.01 248.1 71.51 Q 251.6 75.41 253.5 77.06 Q 255.4 78.71 260.6 82.11 Q 265.1 85.21 267.1 85.91 Q 269.1 86.61 273.7 86.71 Q 278.7 86.71 280.65 86.16 Q 282.6 85.61 284.4 83.11 Q 286.5 80.41 287.05 79.11 Q 287.6 77.81 287.1 76.81 Q 286.5 75.61 286.2 74.16 Q 285.9 72.71 285.3 72.01 Q 284.7 71.31 284.4 68.71 Q 284.1 65.61 283.3 61.01 Q 283.1 59.81 282.7 59.31 Q 281.9 58.41 281.9 59.81 Q 281.9 60.81 281.4 63.31 Q 279.6 69.31 278.7 70.41 Q 277.8 71.51 274.7 71.51 Q 272 71.51 267.8 69.81 Q 259.7 66.31 256 62.01 Q 254.3 60.11 251.8 57.51 Q 249.1 54.41 247.85 52.16 Q 246.6 49.91 245.3 45.21 Q 244.3 41.31 245.2 41.31 Q 245.7 41.31 248.15 43.76 Q 250.6 46.21 253 47.51 Q 254.8 48.61 255.5 49.16 Q 256.2 49.71 257.5 51.51 Q 259.4 53.81 260.05 54.21 Q 260.7 54.61 262 54.31 Q 263.5 54.21 264.55 53.56 Q 265.6 52.91 265.6 52.01 Q 265.6 51.21 266 50.96 Q 266.4 50.71 266.4 48.31 Q 266.4 46.71 266.2 46.16 Q 266 45.61 265.2 44.91 Q 262.4 42.61 255.3 40.31 Q 250.8 38.91 250.8 38.31 Q 250.8 37.71 251.1 37.71 Q 251.4 37.71 253.4 35.96 Q 255.4 34.21 256.7 33.66 Q 258 33.11 259.95 31.41 Q 261.9 29.71 262.8 29.21 Q 263.7 28.71 264 25.91 Q 264.3 23.51 263.8 22.46 Q 263.3 21.41 261.3 20.51 Q 259.6 19.51 259.15 19.61 Q 258.7 19.71 258.4 20.91 Q 258 22.91 253.75 27.86 Q 249.5 32.81 247.1 34.41 Q 245.7 35.21 245.45 36.46 Q 245.2 37.71 244.8 37.71 Q 244.3 37.21 244.4 33.41 Q 244.5 29.61 244.95 24.96 Q 245.4 20.31 245.9 20.11 Q 246.4 19.71 247.3 17.81 Q 248.2 15.91 248.2 15.21 Q 248.2 13.01 243.7 11.61 Q 241.3 10.71 241.3 10.31 Q 240.6 9.91 239.2 10.81 Z M 73.4 39.91 L 73.2 43.11 L 74.7 42.91 Q 76.2 42.71 79.5 42.11 Q 84.1 41.21 86.55 41.71 Q 89 42.21 91.5 44.41 Q 92.6 45.41 92.75 45.96 Q 92.9 46.51 92.8 47.81 Q 92.6 49.61 91.45 51.21 Q 90.3 52.81 89.1 53.01 Q 88.1 53.31 84.6 51.81 Q 82 50.61 78.6 49.81 Q 75.2 49.01 73.6 49.21 Q 72.6 49.31 72.3 49.71 Q 72 50.11 71.7 52.01 Q 71.2 54.61 70.7 57.51 L 70 63.41 Q 69.6 66.41 70 66.81 Q 70.7 67.51 78.1 68.81 Q 79.7 69.11 80.3 69.81 Q 80.9 70.51 80.9 72.21 Q 80.9 73.81 80 75.46 Q 79.1 77.11 78 77.31 Q 77 77.41 73.8 76.21 Q 70 75.01 69.15 74.91 Q 68.3 74.81 67.4 75.61 Q 66.6 76.51 65.8 78.11 Q 64 81.81 60.9 84.91 Q 59.5 86.61 59.5 87.06 Q 59.5 87.51 57 89.26 Q 54.5 91.01 54.05 90.41 Q 53.6 89.81 51.95 88.61 Q 50.3 87.41 48.3 85.31 Q 45.8 83.01 46.2 82.11 Q 46.6 81.21 50.2 81.01 Q 53.4 80.81 53.9 80.21 Q 54.8 79.01 56.1 76.36 Q 57.4 73.71 57.1 73.51 Q 56.9 73.31 49.5 72.96 Q 42.1 72.61 39.35 73.21 Q 36.6 73.81 36 74.51 Q 35.1 75.11 34.15 75.21 Q 33.2 75.31 32.7 74.91 Q 32.2 74.31 31.9 72.66 Q 31.6 71.01 31.9 70.71 Q 32.1 70.61 32.4 67.91 Q 32.7 65.81 32.9 65.26 Q 33.1 64.71 33.8 64.51 Q 34.8 64.11 35.15 63.26 Q 35.5 62.41 36.5 60.61 Q 39 56.41 38.8 53.31 Q 38.8 52.311 38.3 52.51 Q 37.8 52.81 36.2 53.26 Q 34.6 53.71 33.7 54.51 Q 33.1 55.11 31.15 55.16 Q 29.2 55.21 28.1 54.71 Q 27.5 54.51 27.65 53.51 Q 27.8 52.51 28.6 51.41 Q 29.1 50.41 31.65 49.36 Q 34.2 48.31 36.6 47.91 Q 39.3 47.51 40.05 47.11 Q 40.8 46.71 40.8 45.41 Q 40.8 43.11 41.85 39.06 Q 42.9 35.01 43.4 34.81 Q 44 34.61 44 33.21 Q 44 30.81 46.9 29.21 Q 49.8 27.61 54.4 27.31 Q 59 27.01 63.25 27.51 Q 67.5 28.01 69.6 29.31 Q 70.5 29.91 71.3 30.36 Q 72.1 30.81 73.15 32.21 Q 74.2 33.61 73.9 35.21 Q 73.6 36.81 73.4 39.91 Z M 28.6 17.21 L 28.5 19.41 L 31.1 19.61 Q 33.9 19.81 34.75 20.71 Q 35.6 21.61 35.4 23.61 Q 35 26.51 34.1 27.41 Q 33.2 28.31 30.8 27.91 L 29.3 27.61 L 28.6 29.81 Q 27.8 32.01 27.8 33.91 L 27.7 35.91 L 30.5 36.91 Q 33.4 37.81 34 38.61 Q 35.5 40.61 33.9 44.21 Q 33.4 45.41 33.05 45.66 Q 32.7 45.91 31.6 45.91 Q 30.1 45.91 28.25 44.91 Q 26.4 43.91 26.3 44.01 Q 26.2 44.11 26.15 53.06 Q 26.1 62.01 25.5 68.26 Q 24.9 74.51 24.9 76.01 Q 25 77.51 24.2 79.86 Q 23.4 82.21 22.5 83.01 Q 21.8 83.71 21.6 83.76 Q 21.4 83.81 20.9 83.41 Q 19.1 81.71 18.2 76.61 Q 17.8 74.51 17.85 73.41 Q 17.9 72.31 18.5 69.71 Q 19.7 64.31 20.3 56.66 Q 20.9 49.01 20.2 48.61 Q 19.9 48.41 16.4 52.81 Q 12.1 58.11 7.1 62.56 Q 2.1 67.01 0.5 67.01 Q 0 67.01 0 66.91 Q 0 66.81 0.4 65.91 Q 1.1 65.01 1.1 64.56 Q 1.1 64.11 5.25 58.61 Q 9.4 53.11 11 50.51 Q 12.4 48.41 14.45 44.46 Q 16.5 40.51 16.5 39.86 Q 16.5 39.21 16.85 38.81 Q 17.2 38.41 17.65 36.96 Q 18.1 35.51 18.9 33.41 Q 19.5 32.11 19.75 31.31 Q 20 30.51 20.05 30.01 Q 20.1 29.51 19.95 29.41 Q 19.8 29.31 19.5 29.31 Q 18.5 29.31 16.1 30.31 Q 13.7 31.31 12.7 32.01 Q 11 33.51 7.9 31.91 Q 7.1 31.61 6.9 31.11 Q 6.7 30.61 6.7 29.31 Q 6.7 27.91 7 27.46 Q 7.3 27.01 8.5 26.21 Q 11.6 23.81 19.1 22.31 L 22 21.61 L 22.3 17.91 Q 22.9 11.11 23.7 6.41 Q 23.9 5.01 24.7 4.11 Q 26.3 1.91 28.1 4.71 Q 28.9 6.01 29 6.81 Q 29.1 7.61 28.9 10.61 Q 28.6 14.91 28.6 17.21 Z M 61.4 57.31 Q 61.1 60.31 60.6 63.01 L 60 65.71 L 50.9 65.51 Q 41.7 65.31 41.4 64.96 Q 41.1 64.61 42.3 62.11 Q 44.4 57.71 45.3 53.61 Q 45.7 51.81 46.15 51.26 Q 46.6 50.71 47.8 50.71 Q 48.6 50.71 48.65 51.06 Q 48.7 51.41 48.5 52.71 Q 48 54.51 48.3 55.81 Q 48.5 57.01 50.35 59.76 Q 52.2 62.51 52.9 62.61 Q 53.4 62.61 53.4 62.91 Q 53.4 63.21 54.15 63.46 Q 54.9 63.71 55.3 63.41 Q 55.9 63.01 56.9 61.01 Q 57.9 59.01 57.9 58.01 Q 57.9 56.91 57 56.16 Q 56.1 55.41 54.9 54.26 Q 53.7 53.11 51.4 52.01 L 49.1 50.81 L 52.5 50.41 Q 57.4 49.81 60.8 49.71 L 62.4 49.61 L 62.1 51.91 L 61.4 57.31 Z M 49.8 1.01 Q 50.3 0.51 52 1.41 Q 53.7 2.31 54.7 3.31 Q 55.4 4.31 55.6 4.81 Q 55.8 5.31 55.5 6.61 Q 55.3 8.31 54.4 9.96 Q 53.5 11.61 50.6 15.31 Q 45.4 22.41 38.2 28.51 Q 34.4 31.71 34.4 30.51 Q 34.4 30.01 39 22.71 Q 41.6 18.31 45.6 10.61 Q 48.8 4.41 49.1 2.81 Q 49.4 1.21 49.8 1.01 Z M 58.9 32.61 Q 62 33.11 62.75 33.91 Q 63.5 34.71 63.5 37.91 Q 63.5 41.31 63.1 42.51 Q 63 43.31 62.6 43.56 Q 62.2 43.81 60.8 43.81 Q 59.3 43.91 58.95 43.81 Q 58.6 43.71 58.6 43.11 Q 58.6 42.31 59.2 41.66 Q 59.8 41.01 59.8 40.11 Q 59.8 39.01 57.5 37.46 Q 55.2 35.91 53.4 35.61 Q 52.4 35.61 52.1 35.91 Q 51.8 36.21 51.5 37.21 Q 51 38.51 51.2 39.46 Q 51.4 40.41 52.4 42.31 Q 53.5 44.01 53.55 44.31 Q 53.6 44.61 53.1 44.81 Q 51.8 45.21 49.7 45.36 Q 47.6 45.51 47.5 45.21 Q 47.3 44.81 48.2 42.21 Q 49.9 35.81 49.3 34.51 Q 49 33.51 49.55 33.06 Q 50.1 32.61 51.9 32.51 Q 54 32.31 54.9 32.26 Q 55.8 32.21 58.9 32.61 Z M 65 14.11 Q 73 13.71 73.9 15.01 Q 74.8 16.21 74.1 18.66 Q 73.4 21.11 72.1 21.51 Q 71.5 21.81 69.6 21.11 Q 68 20.41 62.1 20.26 Q 56.2 20.11 53.5 20.61 Q 51.9 20.81 51.6 20.76 Q 51.3 20.71 51.3 19.91 Q 51.3 18.01 51.7 17.16 Q 52.1 16.31 53.4 15.71 Q 56.1 14.71 65 14.11 Z M 150.2 43.31 Q 150.7 43.41 149.9 46.56 Q 149.1 49.71 147.85 52.81 Q 146.6 55.91 146.1 55.91 Q 145.7 55.91 145.25 55.06 Q 144.8 54.21 142.55 51.01 Q 140.3 47.81 140.3 47.31 Q 140.3 46.81 139.7 45.91 Q 139.1 45.01 139.25 44.81 Q 139.4 44.61 140.7 44.61 Q 142.4 44.61 143.2 44.21 Q 143.9 43.71 146.05 43.41 Q 148.2 43.11 149.1 43.21 Q 149.9 43.31 150.2 43.31 Z"/></g></svg>